<?xml version="1.0" standalone="no"?><!DOCTYPE svg PUBLIC "-//W3C//DTD SVG 1.1//EN" "http://www.w3.org/Graphics/SVG/1.1/DTD/svg11.dtd"><svg class="icon" width="200px" height="200.00px" viewBox="0 0 1024 1024" version="1.1" xmlns="http://www.w3.org/2000/svg"><path fill="#333333" d="M509.631558 1023.148609c173.804465 0 329.661162-76.771501 435.554934-198.244087C905.368624 750.353596 774.066159 681.862689 655.057695 642.47461c-6.497994-2.115174-47.50699-20.606317-21.88545-98.515734l-0.355087 0c66.797335-68.77641 117.845988-179.52577 117.845988-288.512996 0-167.615509-111.472837-255.444856-240.98861-255.444856-129.603777 0-240.428861 87.829348-240.428861 255.444856 0 109.430318 50.768267 220.608443 117.959575 289.229311 26.185382 68.705801-20.645203 94.212732-30.446429 97.800443C243.682463 683.359786 114.320187 752.299925 74.378499 825.243237 180.268178 946.513208 335.994915 1023.148609 509.631558 1023.148609z" /></svg>